<svg width="245" height="34" viewBox="0 0 245 34" fill="none" xmlns="http://www.w3.org/2000/svg">
<g clip-path="url(#clip0_26_93)">
<path d="M19.9959 6.98125H22.7346V2.21125C22.2621 2.14625 20.6371 2 18.7446 2C14.7959 2 12.0909 4.48375 12.0909 9.04875V13.25H7.7334V18.5825H12.0909V32H17.4334V18.5837H21.6146L22.2784 13.2513H17.4321V9.5775C17.4334 8.03625 17.8484 6.98125 19.9959 6.98125Z" fill="#757575"/>
</g>
<path d="M92.5 2H77.5C73.3579 2 70 5.35786 70 9.5V24.5C70 28.6421 73.3579 32 77.5 32H92.5C96.6421 32 100 28.6421 100 24.5V9.5C100 5.35786 96.6421 2 92.5 2Z" stroke="#757575" stroke-width="3" stroke-linecap="round" stroke-linejoin="round"/>
<path d="M90.9996 16.0545C91.1847 17.3028 90.9714 18.5778 90.3902 19.698C89.8089 20.8182 88.8893 21.7266 87.762 22.294C86.6347 22.8614 85.3572 23.0589 84.1112 22.8584C82.8652 22.6579 81.7142 22.0696 80.8218 21.1772C79.9294 20.2848 79.3412 19.1338 79.1407 17.8878C78.9402 16.6418 79.1377 15.3643 79.7051 14.237C80.2724 13.1098 81.1808 12.1901 82.301 11.6088C83.4212 11.0276 84.6962 10.8144 85.9446 10.9995C87.2179 11.1883 88.3968 11.7817 89.3071 12.6919C90.2174 13.6022 90.8107 14.7811 90.9996 16.0545Z" stroke="#757575" stroke-width="3" stroke-linecap="round" stroke-linejoin="round"/>
<path d="M93.25 8.75H93.265" stroke="#757575" stroke-width="3" stroke-linecap="round" stroke-linejoin="round"/>
<path d="M175 2.01681C173.477 3.14614 171.79 4.0099 170.005 4.57482C169.046 3.41704 167.773 2.59645 166.357 2.224C164.94 1.85156 163.449 1.94525 162.085 2.49239C160.721 3.03953 159.55 4.01373 158.73 5.28323C157.91 6.55272 157.48 8.05627 157.5 9.59051V11.2624C154.704 11.3386 151.934 10.687 149.436 9.36555C146.938 8.04414 144.789 6.09396 143.182 3.68871C143.182 3.68871 136.818 18.7358 151.136 25.4234C147.86 27.7606 143.957 28.9326 140 28.7672C154.318 37.1267 171.818 28.7672 171.818 9.54035C171.817 9.07465 171.774 8.6101 171.691 8.15268C173.315 6.4699 174.46 4.34529 175 2.01681Z" fill="#FFA800"/>
<path d="M236 11.4736C238.387 11.4736 240.676 12.4718 242.364 14.2484C244.052 16.0251 245 18.4347 245 20.9473V31.9999H239V20.9473C239 20.1098 238.684 19.3066 238.121 18.7143C237.559 18.1221 236.796 17.7894 236 17.7894C235.204 17.7894 234.441 18.1221 233.879 18.7143C233.316 19.3066 233 20.1098 233 20.9473V31.9999H227V20.9473C227 18.4347 227.948 16.0251 229.636 14.2484C231.324 12.4718 233.613 11.4736 236 11.4736Z" fill="#757575"/>
<path d="M221 13.0527H215V32.0001H221V13.0527Z" fill="#757575"/>
<path d="M218 8.31579C219.657 8.31579 221 6.90195 221 5.15789C221 3.41384 219.657 2 218 2C216.343 2 215 3.41384 215 5.15789C215 6.90195 216.343 8.31579 218 8.31579Z" fill="#757575"/>
<defs>
<clipPath id="clip0_26_93">
<rect width="30" height="30" fill="white" transform="translate(0 2)"/>
</clipPath>
</defs>
</svg>
